<?xml version="1.0" encoding="UTF-8" standalone="no"?>
<svg
   xmlns:dc="http://purl.org/dc/elements/1.1/"
   xmlns:cc="http://creativecommons.org/ns#"
   xmlns:rdf="http://www.w3.org/1999/02/22-rdf-syntax-ns#"
   xmlns:svg="http://www.w3.org/2000/svg"
   xmlns="http://www.w3.org/2000/svg"
   xmlns:sodipodi="http://sodipodi.sourceforge.net/DTD/sodipodi-0.dtd"
   xmlns:inkscape="http://www.inkscape.org/namespaces/inkscape"
   width="210mm"
   height="210mm"
   viewBox="0 0 210 210"
   version="1.1"
   id="svg893"
   inkscape:version="1.0.1 (c497b03c, 2020-09-10)"
   sodipodi:docname="logo-white.svg">
  <defs
     id="defs887" />
  <sodipodi:namedview
     id="base"
     pagecolor="#ffffff"
     bordercolor="#666666"
     borderopacity="1.0"
     inkscape:pageopacity="0.0"
     inkscape:pageshadow="2"
     inkscape:zoom="0.7"
     inkscape:cx="103.92857"
     inkscape:cy="417.14286"
     inkscape:document-units="mm"
     inkscape:current-layer="layer1"
     inkscape:document-rotation="0"
     showgrid="false"
     inkscape:window-width="1440"
     inkscape:window-height="875"
     inkscape:window-x="0"
     inkscape:window-y="25"
     inkscape:window-maximized="0"
     inkscape:pagecheckerboard="true"
     showborder="true"
     borderlayer="false"
     inkscape:showpageshadow="false" />
  <metadata
     id="metadata890">
    <rdf:RDF>
      <cc:Work
         rdf:about="">
        <dc:format>image/svg+xml</dc:format>
        <dc:type
           rdf:resource="http://purl.org/dc/dcmitype/StillImage" />
        <dc:title></dc:title>
      </cc:Work>
    </rdf:RDF>
  </metadata>
  <g
     inkscape:label="Layer 1"
     inkscape:groupmode="layer"
     id="layer1">
    <path
       d="M 104.9977,0 C 47.101503,0 0,47.10188 0,105.00144 0,162.89811 47.101503,210 104.9977,210 c 3.76921,0 7.4862,-0.20863 11.15398,-0.5968 l -10.19215,-20.89716 c -0.32193,0.006 -0.63728,0.0263 -0.96183,0.0263 -46.05853,0 -83.530008,-37.47175 -83.530008,-83.53065 0,-46.058904 37.471478,-83.533557 83.530008,-83.533557 46.06149,0 83.53288,37.474653 83.53288,83.533557 0,27.46789 -13.3557,51.84742 -33.88769,67.07773 l -22.79168,-44.00769 c 13.18195,-4.77449 24.8313,-16.61805 24.8313,-35.718965 0,-22.731034 -16.42673,-41.640746 -44.12035,-41.640746 H 64.82905 l 11.620371,23.684208 h 34.391849 c 11.64927,0 19.28904,7.451473 19.28904,17.956538 0,10.505065 -7.63977,17.956535 -19.28904,17.956535 H 94.142147 94.023075 l 10.855555,22.15452 h 0.0413 l 25.49766,52.09947 c -0.009,0.003 -0.0163,0.009 -0.0247,0.0116 l 9.48511,19.44854 C 180.67812,189.61005 210,150.67524 210,105.00165 210.00049,47.10188 162.89898,0 104.99983,0"
       style="fill:#000000;fill-opacity:1;fill-rule:nonzero;stroke:none;stroke-width:0.289711"
       id="path873"
       inkscape:export-xdpi="123.86"
       inkscape:export-ydpi="123.86" />
  </g>
</svg>
