<?xml version="1.0" encoding="UTF-8" standalone="no"?>
<svg
   xmlns:dc="http://purl.org/dc/elements/1.1/"
   xmlns:cc="http://creativecommons.org/ns#"
   xmlns:rdf="http://www.w3.org/1999/02/22-rdf-syntax-ns#"
   xmlns:svg="http://www.w3.org/2000/svg"
   xmlns="http://www.w3.org/2000/svg"
   width="210mm"
   height="27mm"
   viewBox="0 0 210 27"
   version="1.1"
   id="svg1522">
  <defs
     id="defs1516" />
  <metadata
     id="metadata1519">
    <rdf:RDF>
      <cc:Work
         rdf:about="">
        <dc:format>image/svg+xml</dc:format>
        <dc:type
           rdf:resource="http://purl.org/dc/dcmitype/StillImage" />
        <dc:title></dc:title>
      </cc:Work>
    </rdf:RDF>
  </metadata>
  <g
     id="layer1">
    <path
       d="m 20.066071,26.729708 -5.919183,-11.42882 c 2.568844,-0.930714 4.839796,-3.239242 4.839796,-6.9620694 0,-4.429733 -3.201662,-8.11552748 -8.599669,-8.11552748 H 0 V 26.729708 H 5.1747214 V 16.15699 H 8.8975591 L 14.072281,26.729708 Z M 13.811962,8.3388186 c 0,2.0476564 -1.488921,3.4995514 -3.759872,3.4995514 H 5.1747214 V 4.8398 H 10.05209 c 2.270951,0 3.759872,1.4518791 3.759872,3.4990186 z M 42.120767,26.729708 V 22.113732 H 29.835298 v -6.44089 h 10.46162 V 11.056866 H 29.835298 V 4.8398 H 42.120767 V 0.22329112 H 24.660574 V 26.729708 Z M 64.957494,4.8398 V 0.22329112 H 47.497303 V 26.729708 h 5.174725 V 15.970732 H 63.133112 V 11.354755 H 52.672028 V 4.8398 Z M 86.975165,26.729708 V 22.113732 H 74.950008 V 0.22329112 H 69.775285 V 26.729708 Z m 45.970815,-8.153092 h -5.24934 c -0.52117,2.159302 -1.89846,3.760407 -4.46729,3.760407 -1.41485,0 -2.56885,-0.52118 -3.31331,-1.377814 -0.96775,-1.116425 -1.3032,-2.419626 -1.3032,-7.482717 0,-5.0630756 0.33545,-6.3662766 1.3032,-7.4827018 0.74446,-0.8566339 1.89846,-1.3778139 3.31331,-1.3778139 2.56883,0 3.90908,1.6010898 4.43026,3.7604074 h 5.28637 C 131.97823,2.8291605 128.18079,0 123.22935,0 c -3.05246,0 -5.28637,1.0047796 -7.11075,2.7921279 -2.64292,2.6429172 -2.68048,5.6212885 -2.68048,10.6843641 0,5.063091 0.0376,8.041462 2.68048,10.68438 1.82438,1.787348 4.05829,2.792128 7.11075,2.792128 4.91439,0 8.74888,-2.829161 9.71663,-8.376384 z M 154.40543,4.8398 V 0.22329112 H 135.3817 V 4.8398 h 6.9245 v 21.889908 h 5.17472 V 4.8398 Z m 34.61604,-4.61650888 h -5.398 L 178.29954,17.497223 172.97614,0.22329112 h -5.36098 l 8.74888,26.50641688 h 3.87151 z m 20.9753,26.50641688 v -4.615976 h -12.28545 v -6.44089 h 10.46107 V 11.056866 H 197.71132 V 4.8398 h 12.28545 V 0.22329112 H 192.53658 V 26.729708 h 17.46019"
       style="fill:#cb4b16;fill-opacity:1;fill-rule:nonzero;stroke:none;stroke-width:0.053674"
       id="path863" />
    <path
       d="M 91.496674,0.22811418 V 4.8440905 H 108.9515 V 0.22811418 H 91.496674"
       style="fill:#cb4b16;fill-opacity:1;fill-rule:nonzero;stroke:none;stroke-width:0.053674"
       id="path865" />
    <path
       d="m 91.496674,22.113732 v 4.615976 H 108.9515 V 22.113732 H 91.496674"
       style="fill:#cb4b16;fill-opacity:1;fill-rule:nonzero;stroke:none;stroke-width:0.053674"
       id="path867" />
    <path
       d="m 91.496674,11.070285 v 4.615977 H 105.98546 V 11.070285 H 91.496674"
       style="fill:#586e75;fill-opacity:1;fill-rule:nonzero;stroke:none;stroke-width:0.053674"
       id="path869" />
    <path
       d="M 164.10004,26.729708 V 0.22329112 h -5.17472 V 26.729708 h 5.17472"
       style="fill:#cb4b16;fill-opacity:1;fill-rule:nonzero;stroke:none;stroke-width:0.053674"
       id="path871" />
  </g>
</svg>
